<?xml version="1.0" encoding="UTF-8"?>
<svg id="Layer_1" data-name="Layer 1" xmlns="http://www.w3.org/2000/svg" viewBox="0 0 160 160">
  <defs>
    <style>
      .cls-1 {
        fill: #1a2b4a;
      }

      .cls-2 {
        fill: #2e7cf6;
      }
    </style>
  </defs>
  <g>
    <polygon class="cls-1" points="16.94 64.27 44.23 68.09 44.23 92.65 16.94 95.73 16.94 64.27"/>
    <polygon class="cls-2" points="16.94 64.27 16.94 95.73 0 92.09 0 68.83 16.94 64.27"/>
    <path class="cls-1" d="M5.39,87.76v-15.42l2-.2v15.66l-2-.03ZM6.93,87.79v-3.05l4.61-.03v3.16l-4.61-.08Z"/>
    <path class="cls-2" d="M31.59,88.53c-.84.02-1.63-.19-2.36-.61-.74-.43-1.4-1.04-1.96-1.84s-1.02-1.75-1.33-2.84c-.32-1.09-.48-2.26-.48-3.51s.16-2.41.48-3.47c.32-1.06.77-1.95,1.33-2.7s1.22-1.29,1.95-1.65c.73-.36,1.52-.5,2.37-.41s1.66.38,2.33.86c.67.48,1.24,1.1,1.73,1.85l-1.6,2.32c-.28-.48-.62-.87-1.03-1.16s-.89-.46-1.43-.51c-.49-.04-.94.05-1.34.26s-.77.54-1.07.98-.54.98-.71,1.63c-.17.65-.25,1.35-.25,2.12s.08,1.52.25,2.18c.17.65.4,1.21.71,1.69.31.47.66.83,1.07,1.08.41.25.86.37,1.34.37.57,0,1.06-.12,1.47-.37.41-.25.76-.61,1.05-1.08l1.62,2.46c-.5.73-1.08,1.3-1.75,1.72-.68.42-1.47.64-2.38.65Z"/>
  </g>
  <g>
    <path class="cls-1" d="M51.31,87.25v-15.47h3.46v15.47h-3.46ZM53.99,87.25v-3.02h7.65v3.02h-7.65Z"/>
    <path class="cls-1" d="M69.37,87.49c-1.11,0-2.1-.25-2.98-.75-.88-.5-1.57-1.17-2.08-2.02s-.77-1.8-.77-2.85.25-1.97.76-2.8,1.19-1.49,2.07-1.98c.88-.49,1.88-.73,3-.73s2.08.24,2.97.72,1.58,1.14,2.09,1.98c.51.84.77,1.78.77,2.82s-.26,2.02-.77,2.86c-.51.84-1.2,1.51-2.08,2-.88.5-1.87.75-2.98.75ZM69.37,84.43c.47,0,.88-.1,1.25-.31.36-.2.65-.5.84-.89.2-.39.3-.83.3-1.33s-.1-.91-.31-1.28c-.21-.37-.49-.66-.84-.88-.36-.21-.77-.32-1.24-.32s-.88.11-1.25.32c-.37.21-.65.51-.85.89-.21.38-.31.8-.31,1.27,0,.5.1.94.31,1.33.2.39.49.68.85.89.36.21.78.31,1.25.31Z"/>
    <path class="cls-1" d="M82.29,86.92c-.98,0-1.85-.23-2.61-.7-.76-.47-1.36-1.1-1.8-1.91-.44-.8-.66-1.69-.66-2.67s.22-1.91.66-2.69c.44-.79,1.04-1.41,1.81-1.87.77-.46,1.63-.69,2.6-.69.73,0,1.38.14,1.96.41.58.27,1.04.65,1.4,1.14.36.49.56,1.06.6,1.7v4.05c-.04.63-.24,1.19-.6,1.68-.36.49-.82.87-1.4,1.15s-1.23.42-1.96.42ZM82.45,92.03c-1.15,0-2.17-.2-3.06-.6-.88-.4-1.58-.97-2.09-1.7l2.08-2.06c.38.45.81.8,1.28,1.03s1.03.35,1.68.35c.83,0,1.49-.21,1.96-.61.47-.41.71-.99.71-1.75v-2.7l.57-2.32-.5-2.32v-2.74h3.31v9.99c0,1.1-.26,2.05-.77,2.87-.51.82-1.22,1.45-2.11,1.9-.9.45-1.92.67-3.06.67ZM82.93,83.95c.47,0,.87-.1,1.22-.31.34-.2.61-.48.79-.82.18-.34.27-.74.27-1.19,0-.41-.09-.79-.27-1.14-.18-.35-.44-.63-.78-.83-.34-.2-.74-.31-1.2-.31s-.85.1-1.21.31c-.35.21-.62.48-.81.83-.19.35-.28.74-.28,1.16s.1.79.3,1.15c.2.36.46.64.8.84.34.21.73.31,1.18.31Z"/>
    <path class="cls-1" d="M93.51,75.16c-.51,0-.94-.18-1.29-.55-.35-.36-.53-.8-.53-1.31s.18-.96.53-1.31.78-.53,1.29-.53c.54,0,.98.18,1.3.53s.49.79.49,1.31-.16.95-.49,1.31c-.33.37-.76.55-1.3.55ZM91.82,87.25v-10.65h3.37v10.65h-3.37Z"/>
    <path class="cls-2" d="M106.26,87.49c-1.15,0-2.22-.2-3.21-.6-.99-.4-1.85-.97-2.59-1.7s-1.31-1.58-1.72-2.55c-.41-.97-.61-2.02-.61-3.14s.2-2.17.61-3.14c.41-.97.98-1.81,1.72-2.53.74-.71,1.6-1.27,2.57-1.68.98-.4,2.05-.6,3.22-.6,1.23,0,2.32.2,3.28.59.96.39,1.79.93,2.51,1.62l-2.32,2.34c-.39-.44-.88-.78-1.46-1.03s-1.25-.37-2-.37c-.67,0-1.29.11-1.84.34-.56.23-1.04.55-1.45.98-.41.42-.72.93-.94,1.53-.22.6-.33,1.25-.33,1.95s.11,1.39.33,1.98c.22.59.53,1.1.94,1.53.41.43.89.76,1.45.99.55.23,1.17.34,1.84.34.79,0,1.48-.12,2.06-.36.58-.24,1.08-.59,1.49-1.04l2.34,2.34c-.73.7-1.58,1.25-2.54,1.63-.96.39-2.08.58-3.35.58Z"/>
    <path class="cls-2" d="M119.71,87.49c-1.11,0-2.1-.25-2.98-.75-.88-.5-1.57-1.17-2.08-2.02s-.77-1.8-.77-2.85.25-1.97.76-2.8,1.19-1.49,2.07-1.98c.88-.49,1.88-.73,3-.73s2.08.24,2.97.72,1.58,1.14,2.09,1.98c.51.84.77,1.78.77,2.82s-.26,2.02-.77,2.86c-.51.84-1.2,1.51-2.08,2-.88.5-1.87.75-2.98.75ZM119.71,84.43c.47,0,.88-.1,1.25-.31.36-.2.65-.5.84-.89.2-.39.3-.83.3-1.33s-.1-.91-.31-1.28c-.21-.37-.49-.66-.84-.88-.36-.21-.77-.32-1.24-.32s-.88.11-1.25.32c-.37.21-.65.51-.85.89-.21.38-.31.8-.31,1.27,0,.5.1.94.31,1.33.2.39.49.68.85.89.36.21.78.31,1.25.31Z"/>
    <path class="cls-2" d="M132.18,87.54c-.63,0-1.25-.08-1.86-.25-.61-.17-1.18-.4-1.69-.7-.51-.3-.96-.65-1.34-1.04l1.93-1.93c.36.38.79.68,1.26.89.47.21,1,.32,1.59.32.36,0,.65-.06.87-.18.21-.12.32-.28.32-.5,0-.26-.12-.46-.37-.58-.25-.12-.57-.24-.97-.35-.4-.11-.82-.23-1.26-.37-.44-.14-.85-.33-1.25-.56-.39-.23-.72-.56-.96-.96-.25-.41-.37-.94-.37-1.6s.18-1.28.53-1.79.85-.9,1.49-1.19c.64-.29,1.41-.44,2.3-.44s1.72.16,2.5.47c.77.31,1.39.78,1.86,1.39l-1.91,1.95c-.34-.39-.71-.68-1.13-.84-.42-.17-.82-.25-1.22-.25s-.67.06-.85.18c-.19.12-.28.27-.28.46,0,.22.13.39.38.53s.58.25.96.35c.39.1.8.22,1.24.36.44.14.85.34,1.25.59.39.26.72.59.96,1.01s.37.96.37,1.63c0,1.04-.39,1.87-1.17,2.49-.78.62-1.84.93-3.17.93Z"/>
    <path class="cls-2" d="M138.53,79.48v-2.87h8.17v2.87h-8.17ZM140.92,87.25v-15.05h3.37v15.05h-3.37Z"/>
    <path class="cls-2" d="M154.17,87.49c-1.11,0-2.1-.25-2.98-.75-.88-.5-1.57-1.17-2.08-2.02s-.77-1.8-.77-2.85.25-1.97.76-2.8,1.19-1.49,2.07-1.98c.88-.49,1.88-.73,3-.73s2.08.24,2.97.72,1.58,1.14,2.09,1.98c.51.84.77,1.78.77,2.82s-.26,2.02-.77,2.86c-.51.84-1.2,1.51-2.08,2-.88.5-1.87.75-2.98.75ZM154.17,84.43c.47,0,.88-.1,1.25-.31.36-.2.65-.5.84-.89.2-.39.3-.83.3-1.33s-.1-.91-.31-1.28c-.21-.37-.49-.66-.84-.88-.36-.21-.77-.32-1.24-.32s-.88.11-1.25.32c-.37.21-.65.51-.85.89-.21.38-.31.8-.31,1.27,0,.5.1.94.31,1.33.2.39.49.68.85.89.36.21.78.31,1.25.31Z"/>
  </g>
</svg>