<?xml version="1.0" encoding="UTF-8"?>
<svg id="Layer_1" data-name="Layer 1" xmlns="http://www.w3.org/2000/svg" viewBox="0 0 160 160">
  <defs>
    <style>
      .cls-1 {
        fill: #1a2b4a;
      }

      .cls-2 {
        fill: #2e7cf6;
      }
    </style>
  </defs>
  <polygon class="cls-1" points="61.27 23.09 160 36.91 160 125.75 61.27 136.91 61.27 23.09"/>
  <polygon class="cls-2" points="61.27 23.09 61.27 136.91 0 123.72 0 39.58 61.27 23.09"/>
  <path class="cls-1" d="M19.51,108.07v-55.78l7.24-.74v56.64l-7.24-.12ZM25.08,108.17v-11.03l16.69-.11v11.42l-16.69-.28Z"/>
  <path class="cls-2" d="M114.26,110.86c-3.04.06-5.89-.67-8.54-2.21-2.68-1.55-5.05-3.77-7.09-6.66-2.06-2.92-3.67-6.34-4.83-10.26-1.16-3.94-1.74-8.18-1.74-12.72s.58-8.73,1.74-12.57c1.15-3.82,2.77-7.07,4.83-9.76,2.04-2.66,4.4-4.65,7.06-5.98,2.63-1.31,5.49-1.8,8.57-1.48s5.99,1.37,8.43,3.12c2.41,1.73,4.5,3.96,6.27,6.7l-5.8,8.4c-1-1.74-2.23-3.13-3.71-4.19-1.48-1.07-3.21-1.68-5.19-1.84-1.77-.14-3.39.17-4.86.94s-2.78,1.95-3.89,3.54c-1.11,1.59-1.97,3.55-2.56,5.88-.6,2.33-.9,4.89-.9,7.66s.3,5.52.9,7.87c.6,2.35,1.45,4.38,2.56,6.1,1.11,1.71,2.4,3.01,3.89,3.9,1.48.9,3.1,1.34,4.86,1.35,2.05.01,3.83-.44,5.33-1.35,1.49-.91,2.75-2.21,3.79-3.92l5.84,8.88c-1.81,2.64-3.92,4.71-6.34,6.21-2.45,1.51-5.32,2.3-8.62,2.37Z"/>
</svg>